<!-- Generator: Adobe Illustrator 22.0.1, SVG Export Plug-In  -->
<svg version="1.1"
	 xmlns="http://www.w3.org/2000/svg" xmlns:xlink="http://www.w3.org/1999/xlink" xmlns:a="http://ns.adobe.com/AdobeSVGViewerExtensions/3.0/"
	 x="0px" y="0px" width="97.604px" height="49.678px" viewBox="0 0 97.604 49.678"
	 style="enable-background:new 0 0 97.604 49.678;" xml:space="preserve">
<style type="text/css">
	.st0{clip-path:url(#SVGID_2_);}
	.st1{fill:#FFFFFF;}
	.st2{clip-path:url(#SVGID_4_);}
</style>
<defs>
</defs>
<g>
	<defs>
		<rect id="SVGID_1_" width="97.604" height="49.678"/>
	</defs>
	<clipPath id="SVGID_2_">
		<use xlink:href="#SVGID_1_"  style="overflow:visible;"/>
	</clipPath>
	<g class="st0">
		<path class="st1" d="M6.642,23.929V3.677h4.643c0.705,0,1.391,0.061,2.057,0.181c0.666,0.121,1.273,0.394,1.821,0.816
			s0.989,1.048,1.322,1.874s0.5,1.965,0.5,3.416c0,1.571-0.226,2.801-0.676,3.688c-0.451,0.887-1.067,1.552-1.851,1.995l2.703,8.282
			h-3.467l-2.351-7.557h-1.41v7.557H6.642z M9.933,45.996H6.642V25.925h4.643c0.705,0,1.4,0.091,2.086,0.272
			c0.686,0.181,1.302,0.523,1.851,1.027c0.548,0.504,0.999,1.209,1.352,2.116c0.353,0.906,0.529,2.086,0.529,3.536
			c0,1.29-0.167,2.389-0.5,3.295c-0.333,0.907-0.793,1.643-1.381,2.207c-0.588,0.564-1.264,0.967-2.027,1.209
			c-0.764,0.242-1.577,0.362-2.439,0.362H9.933V45.996z M9.933,13.29h0.822c1.175,0,1.92-0.272,2.233-0.816
			c0.313-0.544,0.47-1.4,0.47-2.569c0-1.451-0.215-2.348-0.646-2.69C12.381,6.871,11.833,6.7,11.167,6.7H9.933V13.29z M9.933,36.867
			h0.822c1.175,0,1.939-0.271,2.292-0.816c0.353-0.544,0.529-1.582,0.529-3.113c0-1.531-0.235-2.579-0.705-3.144
			s-1.038-0.847-1.704-0.847H9.933V36.867z"/>
		<path class="st1" d="M21.45,45.543c-0.705-0.504-1.215-1.521-1.528-3.053c-0.313-1.532-0.5-3.708-0.559-6.529
			c-0.059-2.821-0.088-6.529-0.088-11.125c0-4.514,0.029-8.172,0.088-10.973c0.059-2.801,0.255-4.978,0.588-6.529
			s0.862-2.6,1.586-3.144s1.753-0.816,3.085-0.816c1.293,0,2.292,0.252,2.997,0.756s1.224,1.461,1.557,2.872
			c0.333,1.41,0.529,3.365,0.587,5.863c0.059,2.499,0.088,5.764,0.088,9.794v2.177c0,4.595-0.04,8.303-0.118,11.125
			s-0.294,4.997-0.646,6.528c-0.353,1.532-0.891,2.55-1.616,3.054s-1.733,0.756-3.026,0.756
			C23.154,46.299,22.155,46.047,21.45,45.543z M25.417,42.61c0.254-0.241,0.46-0.947,0.617-2.115
			c0.157-1.169,0.274-2.973,0.353-5.411c0.079-2.438,0.118-5.834,0.118-10.187c0-2.982-0.01-5.491-0.029-7.526
			c-0.02-2.036-0.059-3.729-0.118-5.079c-0.059-1.35-0.127-2.388-0.206-3.113c-0.079-0.726-0.186-1.27-0.323-1.632
			c-0.137-0.363-0.304-0.574-0.5-0.635s-0.411-0.091-0.646-0.091c-0.313,0-0.578,0.03-0.793,0.091s-0.392,0.271-0.529,0.635
			c-0.137,0.362-0.255,0.906-0.353,1.632c-0.098,0.726-0.176,1.764-0.235,3.113c-0.059,1.351-0.098,3.043-0.117,5.079
			c-0.02,2.035-0.03,4.544-0.03,7.526c0,4.353,0.02,7.749,0.059,10.187s0.127,4.242,0.264,5.411
			c0.137,1.168,0.323,1.874,0.559,2.115c0.235,0.242,0.548,0.363,0.94,0.363C24.839,42.974,25.162,42.853,25.417,42.61z"/>
		<path class="st1" d="M31.674,3.677h3.349l2.351,14.933h0.176l2.292-14.933h3.291l-4.172,20.252H35.67L31.674,3.677z
			 M37.433,25.925c1.645,0,2.909,0.413,3.79,1.239s1.322,2.207,1.322,4.142c0,1.169-0.254,2.156-0.764,2.962
			c-0.509,0.807-1.371,1.311-2.585,1.512V35.9c1.253,0.04,2.233,0.483,2.938,1.33c0.705,0.846,1.058,1.854,1.058,3.022
			c0,1.773-0.421,3.174-1.263,4.201c-0.842,1.028-2.204,1.542-4.084,1.542h-5.23V25.925H37.433z M38.608,33.663
			c0.274-0.483,0.412-1.188,0.412-2.115c0-1.693-0.568-2.539-1.704-2.539h-1.41v5.38h0.411
			C37.57,34.389,38.334,34.147,38.608,33.663z M39.255,42.248c0.274-0.403,0.412-1.068,0.412-1.995c0-1.129-0.323-1.895-0.97-2.297
			c-0.646-0.403-1.361-0.604-2.145-0.604h-0.646v5.501h1.41C38.334,42.853,38.981,42.651,39.255,42.248z"/>
		<path class="st1" d="M53.181,23.023v3.325h-4.583v16.323h4.583v3.325h-7.933V3.677h7.933v3.324h-4.583v16.021H53.181z"/>
		<path class="st1" d="M65.521,3.677v20.252h-3.056l-3.819-12.272h-0.118v12.272h-2.879V3.677h3.291l3.584,11.849h0.118V3.677
			H65.521z M62.23,37.472H58.94v8.524h-3.291V25.925h3.291v8.464h3.291v-8.464h3.291v20.071H62.23V37.472z"/>
		<path class="st1" d="M71.984,22.297h0.764l2.115-18.62h3.468l-2.645,20.615l2.938,21.704h-3.35L72.63,26.408h-0.646v19.588h-3.35
			V3.677h3.35V22.297z"/>
		<path class="st1" d="M82.561,45.543c-0.705-0.504-1.215-1.521-1.528-3.053c-0.312-1.532-0.499-3.708-0.559-6.529
			c-0.059-2.821-0.088-6.529-0.088-11.125c0-4.514,0.029-8.172,0.088-10.973c0.06-2.801,0.256-4.978,0.588-6.529
			c0.334-1.552,0.862-2.6,1.587-3.144s1.753-0.816,3.085-0.816c1.293,0,2.292,0.252,2.997,0.756s1.224,1.461,1.558,2.872
			c0.332,1.41,0.528,3.365,0.587,5.863c0.06,2.499,0.089,5.764,0.089,9.794v2.177c0,4.595-0.04,8.303-0.118,11.125
			s-0.294,4.997-0.646,6.528c-0.353,1.532-0.892,2.55-1.616,3.054s-1.732,0.756-3.025,0.756S83.266,46.047,82.561,45.543z
			 M86.527,42.61c0.255-0.241,0.461-0.947,0.617-2.115c0.156-1.169,0.274-2.973,0.353-5.411c0.079-2.438,0.118-5.834,0.118-10.187
			c0-2.982-0.01-5.491-0.029-7.526c-0.02-2.036-0.06-3.729-0.118-5.079c-0.059-1.35-0.128-2.388-0.206-3.113
			s-0.186-1.27-0.322-1.632c-0.138-0.363-0.305-0.574-0.5-0.635s-0.411-0.091-0.646-0.091c-0.312,0-0.578,0.03-0.793,0.091
			s-0.392,0.271-0.529,0.635c-0.137,0.362-0.254,0.906-0.352,1.632c-0.099,0.726-0.177,1.764-0.236,3.113
			c-0.059,1.351-0.098,3.043-0.117,5.079c-0.02,2.035-0.029,4.544-0.029,7.526c0,4.353,0.02,7.749,0.059,10.187
			s0.128,4.242,0.265,5.411c0.138,1.168,0.323,1.874,0.559,2.115c0.235,0.242,0.548,0.363,0.94,0.363
			C85.949,42.974,86.273,42.853,86.527,42.61z"/>
	</g>
</g>
</svg>